<?xml version="1.0" standalone="no"?>
<!DOCTYPE svg PUBLIC "-//W3C//DTD SVG 20010904//EN"
 "http://www.w3.org/TR/2001/REC-SVG-20010904/DTD/svg10.dtd">
<svg version="1.0" xmlns="http://www.w3.org/2000/svg"
 width="724.000000pt" height="186.000000pt" viewBox="0 0 724.000000 186.000000"
 preserveAspectRatio="xMidYMid meet">

<g transform="translate(0.000000,186.000000) scale(0.100000,-0.100000)"
fill="#000000" stroke="none">
<path d="M1105 1561 c-4 -138 -4 -399 0 -580 l7 -328 52 -31 c103 -63 167 -82
271 -82 l95 0 0 455 0 454 -45 31 -45 31 -2 -218 -3 -217 -35 31 -35 32 -31
-30 -31 -30 -5 277 -6 277 -90 90 -90 89 -7 -251z"/>
<path d="M822 1137 l3 -522 85 -34 c49 -20 110 -36 145 -39 l59 -5 -29 26 -30
25 -5 473 -5 473 -113 62 -112 62 2 -521z"/>
<path d="M540 1026 l0 -454 47 -16 c26 -9 75 -16 110 -16 l63 0 0 413 0 412
-110 58 -110 58 0 -455z"/>
<path d="M3315 1248 c-115 -41 -170 -134 -163 -276 8 -159 89 -242 246 -250
l74 -4 19 -46 c11 -26 26 -50 32 -54 12 -8 77 -11 77 -4 0 2 -11 29 -25 60
-14 31 -25 62 -25 69 0 7 16 25 35 40 61 49 80 98 80 207 0 105 -16 149 -72
202 -64 61 -192 86 -278 56z m176 -71 c57 -38 79 -89 79 -185 0 -64 -5 -92
-20 -122 -24 -48 -35 -50 -54 -11 -16 31 -34 41 -72 41 -29 0 -29 3 -4 -60 11
-28 20 -53 20 -55 0 -3 -20 -5 -45 -5 -37 0 -51 6 -84 36 -50 44 -65 88 -64
185 1 88 15 121 68 168 30 26 43 31 89 31 39 0 62 -6 87 -23z"/>
<path d="M4149 1236 c-16 -35 3 -58 45 -54 28 3 31 6 31 38 0 32 -3 35 -32 38
-27 3 -35 -1 -44 -22z"/>
<path d="M5154 1241 c-59 -27 -64 -50 -64 -277 0 -181 1 -195 20 -214 11 -11
31 -20 45 -20 25 0 25 1 25 88 l0 87 104 0 c113 0 135 8 180 68 29 40 34 149
8 197 -29 56 -107 90 -201 90 -52 0 -89 -6 -117 -19z m217 -80 c25 -25 29 -37
29 -81 0 -44 -4 -56 -29 -81 -26 -26 -36 -29 -91 -29 -94 0 -100 6 -100 100 0
104 13 120 101 120 54 0 64 -3 90 -29z"/>
<path d="M4727 1233 c-13 -15 -16 -56 -19 -239 -3 -207 -2 -223 16 -243 11
-11 30 -21 43 -21 22 0 23 4 23 63 0 51 4 68 19 81 24 22 33 17 72 -42 50 -73
80 -102 108 -102 58 0 57 13 -13 115 -36 54 -66 101 -66 106 0 5 27 30 59 56
33 26 58 53 57 58 -3 12 -50 19 -81 11 -12 -3 -48 -26 -80 -51 -32 -24 -62
-42 -66 -39 -5 3 -9 63 -9 135 0 129 0 129 -23 129 -13 0 -31 -8 -40 -17z"/>
<path d="M5560 1230 c-19 -19 -20 -33 -20 -240 0 -207 1 -221 20 -240 11 -11
31 -20 45 -20 l25 0 0 118 c0 144 9 166 66 170 65 5 77 -17 84 -150 6 -119 16
-138 67 -138 23 0 23 1 23 118 -1 187 -34 232 -174 232 l-66 0 0 85 c0 84 0
85 -25 85 -14 0 -34 -9 -45 -20z"/>
<path d="M4193 1068 c-39 -10 -40 -15 -46 -156 -8 -156 9 -192 87 -192 25 0
38 6 46 19 15 29 12 41 -9 41 -11 0 -23 6 -28 13 -4 6 -10 73 -13 148 l-5 135
-32 -8z"/>
<path d="M4410 1057 c-51 -34 -75 -81 -75 -152 0 -112 54 -176 155 -183 43 -3
66 1 98 17 66 34 61 41 -28 41 -94 0 -114 8 -129 51 -23 65 -7 160 29 179 24
13 81 13 115 0 18 -7 33 -7 46 1 25 13 18 24 -31 49 -55 28 -137 27 -180 -3z"/>
<path d="M5998 1059 c-21 -11 -38 -24 -38 -29 0 -6 36 -10 84 -10 76 0 86 -2
100 -22 33 -47 23 -58 -53 -58 -111 0 -166 -52 -145 -137 13 -54 60 -83 134
-83 67 0 112 25 144 80 29 49 29 161 1 209 -41 69 -148 92 -227 50z m162 -198
c0 -45 -35 -81 -79 -81 -45 0 -61 14 -61 55 0 44 16 55 82 55 57 0 58 0 58
-29z"/>
<path d="M6632 1065 c-51 -22 -72 -78 -72 -197 0 -85 3 -101 20 -118 11 -11
31 -20 44 -20 24 0 24 0 28 124 4 144 14 166 78 166 55 0 64 -17 70 -140 6
-118 20 -150 66 -150 21 0 22 3 25 124 5 145 15 166 80 166 54 0 65 -23 73
-150 5 -90 9 -107 27 -122 12 -10 31 -18 44 -18 l23 0 -5 128 c-6 141 -16 172
-66 202 -39 24 -138 27 -188 6 -27 -12 -37 -12 -65 0 -43 18 -140 17 -182 -1z"/>
<path d="M3754 1049 c-16 -18 -19 -37 -19 -123 0 -115 11 -148 64 -183 27 -18
48 -23 101 -23 53 0 74 5 101 23 52 35 62 67 67 205 l4 122 -24 0 c-13 0 -33
-7 -44 -15 -19 -12 -22 -27 -26 -119 -6 -129 -19 -156 -78 -156 -60 0 -70 22
-70 151 0 59 -3 114 -6 123 -9 23 -48 20 -70 -5z"/>
<path d="M6384 1054 c-54 -26 -69 -66 -69 -180 0 -86 3 -105 19 -123 11 -12
29 -21 41 -21 22 0 23 3 26 119 4 132 14 154 73 169 21 6 32 15 34 30 3 20 -1
22 -45 22 -26 0 -62 -7 -79 -16z"/>
</g>
</svg>
